<?xml version="1.0" encoding="UTF-8"?>
<svg width="178px" height="178px" viewBox="0 0 178 178" version="1.1" xmlns="http://www.w3.org/2000/svg" xmlns:xlink="http://www.w3.org/1999/xlink">
    <!-- Generator: Sketch 51.3 (57544) - http://www.bohemiancoding.com/sketch -->
    <title>nomosoaplogo</title>
    <desc>Created with Sketch.</desc>
    <defs></defs>
    <g id="nomosoaplogo" stroke="none" stroke-width="1" fill="none" fill-rule="evenodd">
        <g id="Group" transform="translate(27.706200, 25.450106)" fill="#000000" fill-rule="nonzero">
            <path d="M8.19871057,109.502464 L15.5775501,109.502464 L18.5837439,116.061432 L29.7886484,116.061432 L32.7948423,109.502464 L98.9311075,109.502464 L101.937301,116.061432 L113.142206,116.061432 L116.1484,109.502464 L122.980658,109.502464 C127.626594,109.502464 131.179369,105.949689 131.179369,101.303753 L131.179369,29.9749712 C131.179369,25.3290352 127.626594,21.7762606 122.980658,21.7762606 L59.5772968,21.7762606 L76.5212986,4.8322588 C77.61446,3.7390974 77.61446,2.09935528 76.5212986,1.00619387 C75.4281372,-0.0869675348 73.7883951,-0.0869675348 72.6952337,1.00619387 L53.0183283,20.6830992 L39.9003914,7.56516233 C38.80723,6.47200092 37.1674879,6.47200092 36.0743265,7.56516233 C34.9811651,8.65832373 34.9811651,10.2980658 36.0743265,11.3912273 L46.4593599,21.7762606 L8.19871057,21.7762606 C3.55277458,21.7762606 0,25.3290352 0,29.9749712 L0,101.577043 C0,105.949689 3.55277458,109.502464 8.19871057,109.502464 Z M115.055238,35.1674879 C118.881303,35.1674879 122.160787,38.1736818 122.160787,42.2730371 C122.160787,46.099102 119.154594,49.3785862 115.055238,49.3785862 C111.229173,49.3785862 107.949689,46.3723923 107.949689,42.2730371 C108.222979,38.4469721 111.229173,35.1674879 115.055238,35.1674879 Z M115.055238,55.390974 C118.881303,55.390974 122.160787,58.3971678 122.160787,62.4965231 C122.160787,66.322588 119.154594,69.6020723 115.055238,69.6020723 C111.229173,69.6020723 107.949689,66.5958784 107.949689,62.4965231 C108.222979,58.6704582 111.229173,55.390974 115.055238,55.390974 Z M108.49627,76.9809118 L121.887497,76.9809118 C123.527239,76.9809118 124.620401,78.0740732 124.620401,79.7138153 C124.620401,81.3535574 123.527239,82.4467188 121.887497,82.4467188 L108.49627,82.4467188 C106.856528,82.4467188 105.763366,81.3535574 105.763366,79.7138153 C105.763366,78.0740732 107.129818,76.9809118 108.49627,76.9809118 Z M108.49627,89.2789776 L121.887497,89.2789776 C123.527239,89.2789776 124.620401,90.372139 124.620401,92.0118811 C124.620401,93.6516233 123.527239,94.7447847 121.887497,94.7447847 L108.49627,94.7447847 C106.856528,94.7447847 105.763366,93.6516233 105.763366,92.0118811 C105.763366,90.372139 107.129818,89.2789776 108.49627,89.2789776 Z M8.19871057,29.9749712 L98.9311075,29.9749712 L98.9311075,101.577043 L8.19871057,101.577043 L8.19871057,29.9749712 Z" id="Shape"></path>
        </g>
        <g id="Group-2" transform="translate(45.173321, 63.907810)" fill="#000000" fill-rule="nonzero">
            <path d="M70.5307711,23.3578308 L58.3482901,16.3229887 C58.4506517,15.9834651 58.5220166,15.6316869 58.5220166,15.2590039 C58.5220166,14.1942983 58.0570639,13.1829362 57.2619588,12.4815424 C57.2821428,12.3063742 57.2929556,12.1355311 57.2929556,11.9639672 C57.2929556,9.21966512 55.0604619,6.9871714 52.3161598,6.9871714 C51.3768833,6.9871714 50.4635577,7.25677187 49.6742194,7.75776739 C48.8481174,6.40471905 47.3516186,5.5382491 45.73762,5.5382491 C44.3809674,5.5382491 43.164161,6.1315143 42.3207585,7.06790737 L38.1059084,4.63501545 C37.5667075,4.32360528 36.9763257,4.14915792 36.3765728,4.09725623 C35.9664052,1.9418942 34.0705517,0.307711681 31.7984108,0.307711681 C30.7791192,0.307711681 29.8016373,0.640747553 28.997161,1.2549176 C27.7969344,0.513155888 26.428748,0.123172323 25.0108226,0.123172323 C21.3207563,0.123172323 18.1958418,2.76583359 17.5376994,6.3520965 C16.2949422,6.48905931 15.1415712,7.00303025 14.2073407,7.83345736 C12.8204121,7.02033082 11.2489441,6.5928627 9.63278305,6.5928627 C4.61922355,6.5928627 0.540615403,10.6714708 0.540615403,15.6850303 C0.540615403,17.9852846 1.43519877,20.2278703 3.00810846,21.9045834 C2.713278,22.6276028 2.55829377,23.4082908 2.55829377,24.1860954 C2.55829377,25.3978558 2.93241848,26.5959199 3.61579079,27.5971901 C3.50694141,27.9806859 3.45143543,28.3721112 3.45143543,28.7649782 C3.45143543,30.745172 4.75186121,32.4442316 6.60950936,32.9848743 C6.79188615,34.748811 8.28694329,36.1285311 10.0970149,36.1285311 C10.3788699,36.1285311 10.6571207,36.0932091 10.9267211,36.0268903 C11.2842661,36.7902777 11.8638351,37.4448157 12.6185722,37.8809341 L45.0441557,56.6023078 C45.6922061,56.9757116 46.4159464,57.1638553 47.1396867,57.1638553 C47.8634269,57.1638553 48.5871672,56.9749908 49.2352176,56.6023078 L70.5286085,44.3066522 C71.82543,43.5591236 72.6241394,42.1750785 72.6241394,40.6771379 L72.626302,26.988066 C72.626302,25.4901254 71.8275926,24.107522 70.5307711,23.3578308 Z M43.4445744,7.71812026 C44.0443273,7.15080591 44.8480827,6.79686519 45.73762,6.79686519 C47.1101315,6.79686519 48.3658642,7.65901 48.8625346,8.94141437 L49.1890827,9.78697947 L49.8652465,9.18506399 C50.5464562,8.57954422 51.4165304,8.24578749 52.315439,8.24578749 C54.3669976,8.24578749 56.0350604,9.91457113 56.0350604,11.9654089 C56.0350604,12.1758991 56.011993,12.3907145 55.9651373,12.6213887 L55.8844013,13.0236268 L56.2188789,13.2600679 C56.8741378,13.7221371 57.2641213,14.4696657 57.2641213,15.2604457 C57.2641213,15.4024545 57.2453791,15.5394173 57.2223116,15.6749384 C57.024076,16.8304719 56.022085,17.7142424 54.8103246,17.7142424 C53.775895,17.7142424 52.8495939,17.0597044 52.5057452,16.0851059 L52.3716658,15.7073769 L51.9744737,15.6684506 C51.4323893,15.6158281 50.8946301,15.4363347 50.4181437,15.1487128 L49.9294027,14.8531615 L49.5884374,15.3109056 C49.0124728,16.0843851 48.0991471,16.5464543 47.1447327,16.5464543 C45.4600902,16.5464543 44.0897413,15.1753845 44.0919038,13.4186564 L44.1077627,13.0719242 L43.8230242,12.8729677 C42.9255574,12.2451014 42.3892399,11.2243681 42.3892399,10.1438036 C42.3899608,9.18722656 42.7979657,8.32868603 43.4445744,7.71812026 Z M41.5782759,35.1020309 C41.5061902,35.6902501 41.3339055,36.2424265 41.0722344,36.743422 C40.3737241,38.0820532 39.0769026,39.0494431 37.4737169,39.2635376 L36.9864177,39.3284147 L36.9316326,39.8171557 C36.7413264,41.527749 35.2981709,42.8173619 33.575323,42.8173619 C31.7133497,42.8173619 30.1981086,41.3021208 30.1981086,39.4408684 C30.1981086,39.1972187 30.2276637,38.949244 30.2846114,38.7055944 L30.3927399,38.2406417 L29.9753638,38.0114092 C28.9149834,37.428236 28.2193565,36.4075027 28.0672557,35.212322 L28.0088663,34.7560196 L27.5576099,34.6731211 C26.1504973,34.4143334 25.129764,33.1838308 25.129764,31.7457213 L25.1557148,31.2389589 L24.8378169,31.042165 C24.7311301,30.9758462 24.625885,30.9052022 24.5242442,30.8295122 L24.202742,30.5930712 L23.8516847,30.7833774 C23.0832513,31.2000327 22.2153397,31.419894 21.3431028,31.419894 C19.8833677,31.419894 18.5252734,30.8374417 17.5203989,29.7806655 L17.167179,29.4079825 L16.7317815,29.6797455 C16.381445,29.8996069 16.0051578,30.0718917 15.6144533,30.1937165 L15.2172612,30.3177039 L15.1754515,30.730034 C15.0291176,32.1717477 13.9211606,33.3049347 12.4808885,33.4865907 L12.1795704,33.5247961 L12.0224236,33.7850254 C11.6994797,34.3184595 11.1624413,34.6803296 10.5626884,34.8100839 C10.4105876,34.8410807 10.2570451,34.8706358 10.0984566,34.8706358 C8.85858278,34.8706358 7.84938317,33.8614362 7.84938317,32.6208416 L7.88182173,31.9533281 L7.32820365,31.8603376 C5.81079995,31.6051542 4.70933066,30.3040076 4.70933066,28.7642573 C4.70933066,28.408154 4.77420778,28.0520507 4.90324116,27.7060394 L5.02434511,27.3794913 L4.81241319,27.1034031 C4.17012972,26.2700926 3.81690986,25.2335004 3.81690986,24.1853745 C3.81690986,23.4501005 3.99135722,22.7126639 4.32223052,22.0509173 L4.52839559,21.6378663 L4.19608057,21.3178059 C2.67291001,19.8486996 1.79923149,17.7956993 1.79923149,15.6857512 C1.79923149,11.365656 5.31340871,7.85075793 9.63350391,7.85075793 C11.1718125,7.85075793 12.6625445,8.30057261 13.944228,9.15118371 L14.3839507,9.44313074 L14.7479834,9.06035575 C15.6295913,8.1318921 16.819726,7.60422488 18.0999678,7.57394889 L18.647819,7.56025261 L18.7098127,7.01600568 C19.0687994,3.85576918 21.8368898,1.38106755 25.0108226,1.38106755 C26.3307115,1.38106755 27.5994196,1.78618911 28.679984,2.55318082 L29.1016853,2.85233642 L29.4765309,2.49623313 C30.1094432,1.89648021 30.9333826,1.56560691 31.7984108,1.56560691 C33.4030382,1.56560691 34.743832,2.68437677 35.1020978,4.18087562 C35.1633707,4.43605895 35.2044595,4.69845085 35.2044595,4.9716556 C35.2044595,6.81921175 33.7021938,8.34670745 31.8560794,8.3777043 L31.3428293,8.38635458 L31.248397,8.89095438 C30.9903303,10.2699536 30.2651483,11.5444285 29.2062095,12.4801007 L28.8544314,12.79079 L29.052667,13.2168164 C29.3467766,13.8468453 29.5024817,14.5446348 29.5024817,15.2352157 C29.5024817,16.301363 29.1377281,17.3523723 28.4752607,18.1936122 L28.2532368,18.4754673 L28.382991,18.8099449 C28.5379752,19.2100204 28.6165486,19.6216297 28.6165486,20.033239 C28.6165486,20.5875779 28.4781441,21.1426377 28.2164731,21.6378663 L27.8553238,22.3219595 L28.5985272,22.536054 C30.1224186,22.9750558 31.3507587,24.1889788 31.8041777,25.7034991 L31.9245608,26.1035746 L32.3397743,26.1482678 C33.887454,26.3147857 35.0804721,27.6159323 35.1143524,29.173704 L35.1302113,29.9248369 L35.866927,29.7770612 C36.1783371,29.7136258 36.4983976,29.6811873 36.8177372,29.6811873 C39.4733739,29.6811873 41.6330611,31.8423161 41.6330611,34.4965111 C41.6323402,34.7019553 41.6027851,34.9023535 41.5782759,35.1020309 Z M68.8547789,27.7139689 L50.4109351,38.3610248 C48.7976574,39.3608533 47.9996689,40.7809413 47.9917395,42.7099543 L47.9794849,42.7099543 L47.9794849,52.9727935 C47.9794849,53.4363044 47.6039185,53.8118709 47.1411284,53.8118709 C46.6783383,53.8118709 46.3027718,53.4363044 46.3027718,52.9727935 L46.3027718,42.4994641 C46.241499,40.7535487 45.5098293,39.4329389 44.0789284,38.4814079 L42.1700994,37.3792177 C42.4346539,36.8832682 42.6264018,36.3440673 42.7453432,35.7753112 L44.5734362,36.8313665 L44.5864116,36.8119034 C46.3107013,37.7973147 47.998948,37.7973147 49.7232377,36.8119034 L49.7290045,36.8219954 L68.0171432,26.262884 C68.4172188,26.0314889 68.9304689,26.1684518 69.1625848,26.569969 C69.393259,26.9700446 69.2555753,27.4825738 68.8547789,27.7139689 Z" id="Shape"></path>
        </g>
        <g id="Group-3" transform="translate(-0.302771, -0.745190)">
            <path d="M89.230546,177.983661 C46.9664798,177.958878 10.6050637,148.083444 2.38227904,106.626989 C-5.84050564,65.1705328 16.3653371,23.6784289 55.4203389,7.52421135 C94.4753407,-8.63000624 139.502918,5.05251489 162.967501,40.2045461 C186.432083,75.3565772 181.798924,122.188489 151.901326,152.061312 C135.290653,168.694117 112.737207,178.022839 89.230546,177.983661 Z M89.230546,17.3643175 C54.8702744,17.3915479 25.3136821,41.685803 18.635075,75.3907761 C11.956468,109.095749 30.0157516,142.825043 61.769399,155.952681 C93.5230464,169.080319 130.128079,157.950424 149.199963,129.369097 C168.271846,100.78777 164.499309,62.7145388 140.189314,38.4317637 C126.68339,24.9078124 108.343519,17.3257169 89.230546,17.3643175 Z" id="Shape" fill="#CC3333" fill-rule="nonzero"></path>
            <rect id="Rectangle-path" fill="#CC3333" fill-rule="nonzero" transform="translate(89.238012, 89.396796) rotate(-45.000000) translate(-89.238012, -89.396796) " x="8.88404353" y="81.1133387" width="160.707937" height="16.5669152"></rect>
            <rect id="Rectangle-path" x="0.637416467" y="0.797402316" width="177.186259" height="177.186259"></rect>
        </g>
    </g>
</svg>